#!OML:ASF F:\VICON\USERDATA\INSTALL\rory3\rory3.ASF
:FULLY-SPECIFIED
:DEGREES
180
root 0.564411 17.3976 7.08692 -1.34105 1.36789 0.608383
lowerback 5.81608 -2.57253 -1.75668
upperback -0.678512 -3.41575 3.79547
thorax -3.6283 -1.62874 5.22817
lowerneck -16.6174 -1.75315 -9.96977
upperneck 25.9975 -0.696536 3.85637
head 11.2561 -0.830017 3.00258
rclavicle -2.52208e-014 -9.54166e-015
rhumerus -44.7704 -20.9293 -69.0377
rradius 22.119
rwrist 13.8638
rhand -16.0666 14.0844
rfingers 7.12502
rthumb 10.1359 -15.6514
lclavicle -2.52208e-014 -9.54166e-015
lhumerus -28.7616 6.14984 81.2496
lradius 35.5171
lwrist -9.78459
lhand -12.7284 24.9096
lfingers 7.12502
lthumb 13.355 54.4616
rfemur -20.9302 2.83672 21.3896
rtibia 24.8874
rfoot -0.33695 0.976234
rtoes 12.1322
lfemur 7.53811 -4.76398 -21.9471
ltibia 44.029
lfoot 19.6201 -9.11587
ltoes -8.82858
181
root 0.53483 17.4367 7.29497 -1.46674 1.53175 0.221198
lowerback 5.91415 -2.5915 -1.50177
upperback -0.732747 -3.41927 3.84071
thorax -3.75156 -1.63153 5.14013
lowerneck -16.2754 -1.75406 -9.91692
upperneck 25.7842 -0.765049 3.90289
head 11.1122 -0.846227 2.99527
rclavicle -6.71209e-014 2.8625e-014
rhumerus -44.7326 -20.2175 -69.5991
rradius 22.5036
rwrist 12.8705
rhand -16.2085 14.2151
rfingers 7.12502
rthumb 9.99904 -15.5274
lclavicle -6.71209e-014 2.8625e-014
lhumerus -29.1761 6.12462 81.3056
lradius 35.4175
lwrist -9.69257
lhand -12.8482 24.9654
lfingers 7.12502
lthumb 13.2395 54.525
rfemur -19.6453 3.26421 22.0012
rtibia 24.2928
rfoot -0.539081 0.451048
rtoes 13.2066
lfemur 6.00513 -4.90815 -21.2655
ltibia 46.4764
lfoot 23.0357 -9.1841
ltoes -5.38257
182
root 0.50994 17.4729 7.49761 -1.55257 1.38229 -0.188857
lowerback 5.96004 -2.47151 -1.20314
upperback -0.63946 -3.23495 3.93892
thorax -3.70921 -1.54697 5.05821
lowerneck -16.3753 -1.85504 -9.8755
upperneck 25.5801 -0.875652 3.79076
head 11.0645 -0.899942 2.92725
rclavicle -8.69683e-016 -7.95139e-015
rhumerus -44.1754 -20.6566 -69.4606
rradius 22.0925
rwrist 13.2401
rhand -16.4715 14.7318
rfingers 7.12502
rthumb 9.74526 -15.0227
lclavicle -8.69683e-016 -7.95139e-015
lhumerus -29.1773 6.05523 81.5447
lradius 35.1194
lwrist -9.50729
lhand -13.0323 24.8153
lfingers 7.12502
lthumb 13.0621 54.3863
rfemur -18.4966 3.79979 22.6404
rtibia 23.7318
rfoot -0.927135 -0.124184
rtoes 12.9307
lfemur 4.44846 -4.69697 -20.5945
ltibia 48.9041
lfoot 25.1156 -9.27664
ltoes -4.90046
183
root 0.486514 17.5054 7.69567 -1.68713 1.30331 -0.675114
lowerback 6.07147 -2.43799 -0.86844
upperback -0.544556 -3.16106 4.08626
thorax -3.6901 -1.51705 5.02018
lowerneck -16.4258 -1.90545 -9.78838
upperneck 25.3405 -0.906923 3.58251
head 10.9872 -0.92462 2.82673
rclavicle -1.90833e-014 2.8625e-014
rhumerus -43.6255 -20.6142 -69.5389
rradius 21.8781
rwrist 13.5612
rhand -16.7015 15.1922
rfingers 7.12502
rthumb 9.52334 -14.5726
lclavicle -1.90833e-014 2.8625e-014
lhumerus -29.305 6.40014 81.6826
lradius 34.9047
lwrist -9.70232
lhand -12.4996 25.2984
lfingers 7.12502
lthumb 13.5755 54.8358
rfemur -17.3795 4.23058 23.3757
rtibia 23.3575
rfoot -1.31157 -0.585891
rtoes 12.4836
lfemur 2.93176 -4.40432 -19.8131
ltibia 51.2663
lfoot 25.8183 -9.47989
ltoes -4.87978
184
root 0.462892 17.5284 7.89028 -1.76436 1.34073 -0.945728
lowerback 6.01042 -2.41902 -0.731459
upperback -0.456746 -3.12803 4.11028
thorax -3.57348 -1.50635 4.95798
lowerneck -16.3549 -1.92856 -9.70437
upperneck 25.2289 -0.982625 3.6231
head 10.936 -0.943336 2.81462
rclavicle 4.4242e-014 -3.33958e-014
rhumerus -43.1615 -20.3355 -69.8996
rradius 21.9147
rwrist 13.4249
rhand -16.8609 15.4966
rfingers 7.12502
rthumb 9.36959 -14.2751
lclavicle 4.4242e-014 -3.33958e-014
lhumerus -29.4926 6.43549 81.7957
lradius 34.7468
lwrist -9.67157
lhand -12.898 24.9556
lfingers 7.12502
lthumb 13.1915 54.5183
rfemur -16.3629 4.54514 23.8806
rtibia 23.0913
rfoot -1.74282 -1.05182
rtoes 11.7671
lfemur 1.40591 -4.08941 -19.2401
ltibia 53.4981
lfoot 25.8221 -10.0528
ltoes -5.61178
